# Made in Blockbench 4.12.5
mtllib card.mtl

o cuboid
v 0.3252272727272728 0.0062500000000000056 0.4814062500000001
v 0.3252272727272728 0.0062500000000000056 -0.4814062500000001
v 0.3252272727272728 3.469446951953614e-18 0.4814062500000001
v 0.3252272727272728 3.469446951953614e-18 -0.4814062500000001
v -0.3252272727272728 0.0062500000000000056 0.4814062500000001
v -0.3252272727272728 0.0062500000000000056 -0.4814062500000001
v -0.3252272727272728 3.469446951953614e-18 0.4814062500000001
v -0.3252272727272728 3.469446951953614e-18 -0.4814062500000001
v -0.34375 0.0062500000000000056 0.4385416666666669
v -0.34375 3.469446951953614e-18 0.4385416666666669
v -0.34375 0.0062500000000000056 -0.4385416666666668
v -0.34375 3.469446951953614e-18 -0.4385416666666668
v 0.34375 3.469446951953614e-18 0.4385416666666669
v 0.34375 3.469446951953614e-18 -0.4385416666666668
v 0.34375 0.0062500000000000056 0.4385416666666669
v 0.34375 0.0062500000000000056 -0.4385416666666668
v 0.2802083333333334 0.0062500000000000056 -0.5
v 0.2802083333333334 0.0062500000000000056 -0.4385416666666668
v -0.2802083333333334 0.0062500000000000056 -0.5
v -0.2802083333333334 0.0062500000000000056 -0.4385416666666668
v 0.2802083333333334 0.0062500000000000056 0.4385416666666669
v -0.2802083333333334 0.0062500000000000056 0.4385416666666669
v 0.2802083333333334 0.0062500000000000056 0.5
v -0.2802083333333334 0.0062500000000000056 0.5
v 0.2802083333333334 3.469446951953614e-18 0.5
v -0.2802083333333334 3.469446951953614e-18 0.5
v 0.2802083333333334 3.469446951953614e-18 0.4385416666666669
v -0.2802083333333334 3.469446951953614e-18 0.4385416666666669
v 0.2802083333333334 3.469446951953614e-18 -0.4385416666666668
v -0.2802083333333334 3.469446951953614e-18 -0.4385416666666668
v 0.2802083333333334 3.469446951953614e-18 -0.5
v -0.2802083333333334 3.469446951953614e-18 -0.5
v 0.3375 0.0062500000000000056 0.46340494791666675
v 0.3375 3.469446951953614e-18 0.46340494791666675
v 0.2802083333333334 3.469446951953614e-18 0.4692708333333334
v -0.2802083333333334 3.469446951953614e-18 0.4692708333333334
v -0.3375 3.469446951953614e-18 0.46340494791666675
v -0.3375 0.0062500000000000056 0.46340494791666675
v -0.2802083333333334 0.0062500000000000056 0.4692708333333334
v 0.2802083333333334 0.0062500000000000056 0.4692708333333334
v 0.3375 0.0062500000000000056 -0.46340494791666675
v 0.3375 3.469446951953614e-18 -0.46340494791666675
v 0.2802083333333334 3.469446951953614e-18 -0.4692708333333334
v -0.2802083333333334 3.469446951953614e-18 -0.4692708333333334
v -0.3375 3.469446951953614e-18 -0.46340494791666675
v -0.3375 0.0062500000000000056 -0.46340494791666675
v -0.2802083333333334 0.0062500000000000056 -0.4692708333333334
v 0.2802083333333334 0.0062500000000000056 -0.4692708333333334
v 0.30630681818181826 0.0062500000000000056 0.49375
v 0.3119791666666667 0.0062500000000000056 0.4692708333333334
v 0.3119791666666667 0.0062500000000000056 0.4385416666666669
v 0.3119791666666667 0.0062500000000000056 -0.4385416666666668
v 0.3119791666666667 0.0062500000000000056 -0.4692708333333334
v 0.30630681818181826 0.0062500000000000056 -0.49375
v 0.30630681818181826 3.469446951953614e-18 -0.49375
v 0.3119791666666667 3.469446951953614e-18 -0.4692708333333334
v 0.3119791666666667 3.469446951953614e-18 -0.4385416666666668
v 0.3119791666666667 3.469446951953614e-18 0.4385416666666669
v 0.3119791666666667 3.469446951953614e-18 0.4692708333333334
v 0.30630681818181826 3.469446951953614e-18 0.49375
v -0.30630681818181826 0.0062500000000000056 0.49375
v -0.30630681818181826 3.469446951953614e-18 0.49375
v -0.3119791666666667 3.469446951953614e-18 0.4692708333333334
v -0.3119791666666667 3.469446951953614e-18 0.4385416666666669
v -0.3119791666666667 3.469446951953614e-18 -0.4385416666666668
v -0.3119791666666667 3.469446951953614e-18 -0.4692708333333334
v -0.30630681818181826 3.469446951953614e-18 -0.49375
v -0.30630681818181826 0.0062500000000000056 -0.49375
v -0.3119791666666667 0.0062500000000000056 -0.4692708333333334
v -0.3119791666666667 0.0062500000000000056 -0.4385416666666668
v -0.3119791666666667 0.0062500000000000056 0.4385416666666669
v -0.3119791666666667 0.0062500000000000056 0.4692708333333334
vt 0.5002609375 0.71875
vt 0.5066703125 0.71875
vt 0.5066703125 0.734375
vt 0.5002609375 0.734375
vt 0.015364062499999998 0.734375
vt 0.008954687500000003 0.734375
vt 0.008954687500000003 0.71875
vt 0.015364062499999998 0.71875
vt 0 0.9846359375
vt 0.007942187500000003 0.9846359375
vt 0.007942187500000003 0.9923171875
vt 0.0015624999999999944 0.9908515625000001
vt 0.1890625 0.7591484374999999
vt 0.1954421875 0.7576828125
vt 0.1954421875 0.7653640625
vt 0.1875 0.7653640625
vt 0.003528125000000021 0.6875
vt 0.009176562500000013 0.6875
vt 0.009176562500000013 0.703125
vt 0.003528125000000021 0.703125
vt 0.355846875 0.703125
vt 0.3501984375 0.703125
vt 0.3501984375 0.6875
vt 0.355846875 0.6875
vt 0.24649218750000002 0.734375
vt 0.2410453125 0.734375
vt 0.2410453125 0.71875
vt 0.24649218750000002 0.71875
vt 0.2346359375 0.734375
vt 0.015364062499999998 0.734375
vt 0.015364062499999998 0.71875
vt 0.2346359375 0.71875
vt 0.1890625 0.9908515625000001
vt 0.1954421875 0.9923171875
vt 0.1968609375 0.9984375
vt 0.19213125 0.9953515625
vt 0.1875 0.7653640625
vt 0.1954421875 0.7653640625
vt 0.1954421875 0.9846359375
vt 0.1875 0.9846359375
vt 0.2691328125 0.71875
vt 0.2745796875 0.71875
vt 0.2745796875 0.734375
vt 0.2691328125 0.734375
vt 0.2809890625 0.71875
vt 0.5002609375 0.71875
vt 0.5002609375 0.734375
vt 0.2809890625 0.734375
vt 0.004631250000000003 0.7546484375
vt 0.0093609375 0.7515625
vt 0.007942187500000003 0.7576828125
vt 0.0015624999999999944 0.7591484374999999
vt 0 0.7653640625
vt 0.007942187500000003 0.7653640625
vt 0.007942187500000003 0.9846359375
vt 0 0.9846359375
vt 0.1703125 0.9908515625000001
vt 0.1639328125 0.9923171875
vt 0.1639328125 0.9846359375
vt 0.171875 0.9846359375
vt 0.1559890625 0.9846359375
vt 0.1559890625 0.9923171875
vt 0.015885937500000002 0.9923171875
vt 0.015885937500000002 0.9846359375
vt 0.171875 0.9846359375
vt 0.1639328125 0.9846359375
vt 0.1639328125 0.7653640625
vt 0.171875 0.7653640625
vt 0.1559890625 0.9846359375
vt 0.015885937500000002 0.9846359375
vt 0.015885937500000002 0.7653640625
vt 0.1559890625 0.7653640625
vt 0.1703125 0.7591484374999999
vt 0.1639328125 0.7576828125
vt 0.1625140625 0.7515625
vt 0.16724375 0.7546484375
vt 0.1559890625 0.75
vt 0.1559890625 0.7576828125
vt 0.015885937500000002 0.7576828125
vt 0.015885937500000002 0.75
vt 0.16834687499999998 0.703125
vt 0.1626984375 0.703125
vt 0.1626984375 0.6875
vt 0.16834687499999998 0.6875
vt 0.1559890625 0.703125
vt 0.015885937500000002 0.703125
vt 0.015885937500000002 0.6875
vt 0.1559890625 0.6875
vt 0.35474375 0.9953515625
vt 0.3500140625 0.9984375
vt 0.3514328125 0.9923171875
vt 0.3578125 0.9908515625000001
vt 0.2033859375 1
vt 0.2033859375 0.9923171875
vt 0.3434890625 0.9923171875
vt 0.3434890625 1
vt 0.359375 0.9846359375
vt 0.3514328125 0.9846359375
vt 0.3514328125 0.7653640625
vt 0.359375 0.7653640625
vt 0.3434890625 0.9846359375
vt 0.2033859375 0.9846359375
vt 0.2033859375 0.7653640625
vt 0.3434890625 0.7653640625
vt 0.359375 0.7653640625
vt 0.3514328125 0.7653640625
vt 0.3514328125 0.7576828125
vt 0.3578125 0.7591484374999999
vt 0.2033859375 0.7653640625
vt 0.2033859375 0.7576828125
vt 0.3434890625 0.7576828125
vt 0.3434890625 0.7653640625
vt 0.19102812500000002 0.6875
vt 0.1966765625 0.6875
vt 0.1966765625 0.703125
vt 0.19102812500000002 0.703125
vt 0.2033859375 0.6875
vt 0.3434890625 0.6875
vt 0.3434890625 0.703125
vt 0.2033859375 0.703125
vt 0.2809890625 0.734375
vt 0.2745796875 0.734375
vt 0.2745796875 0.71875
vt 0.2809890625 0.71875
vt 0.3578125 0.9908515625000001
vt 0.3514328125 0.9923171875
vt 0.3514328125 0.9846359375
vt 0.359375 0.9846359375
vt 0.3434890625 0.9846359375
vt 0.3434890625 0.9923171875
vt 0.2033859375 0.9923171875
vt 0.2033859375 0.9846359375
vt 0.1875 0.9846359375
vt 0.1954421875 0.9846359375
vt 0.1954421875 0.9923171875
vt 0.1890625 0.9908515625000001
vt 0.2346359375 0.71875
vt 0.2410453125 0.71875
vt 0.2410453125 0.734375
vt 0.2346359375 0.734375
vt 0.0015624999999999944 0.7591484374999999
vt 0.007942187500000003 0.7576828125
vt 0.007942187500000003 0.7653640625
vt 0 0.7653640625
vt 0.015885937500000002 0.7653640625
vt 0.015885937500000002 0.7576828125
vt 0.1559890625 0.7576828125
vt 0.1559890625 0.7653640625
vt 0.171875 0.7653640625
vt 0.1639328125 0.7653640625
vt 0.1639328125 0.7576828125
vt 0.1703125 0.7591484374999999
vt 0.5121171875 0.734375
vt 0.5066703125 0.734375
vt 0.5066703125 0.71875
vt 0.5121171875 0.71875
vt 0.3578125 0.7591484374999999
vt 0.3514328125 0.7576828125
vt 0.3500140625 0.7515625
vt 0.35474375 0.7546484375
vt 0.3434890625 0.75
vt 0.3434890625 0.7576828125
vt 0.2033859375 0.7576828125
vt 0.2033859375 0.75
vt 0.19213125 0.7546484375
vt 0.1968609375 0.7515625
vt 0.1954421875 0.7576828125
vt 0.1890625 0.7591484374999999
vt 0.0035078124999999988 0.71875
vt 0.008954687500000003 0.71875
vt 0.008954687500000003 0.734375
vt 0.0035078124999999988 0.734375
vt 0.0015624999999999944 0.9908515625000001
vt 0.007942187500000003 0.9923171875
vt 0.0093609375 0.9984375
vt 0.004631250000000003 0.9953515625
vt 0.015885937500000002 1
vt 0.015885937500000002 0.9923171875
vt 0.1559890625 0.9923171875
vt 0.1559890625 1
vt 0.16724375 0.9953515625
vt 0.1625140625 0.9984375
vt 0.1639328125 0.9923171875
vt 0.1703125 0.9908515625000001
vt 0.1559890625 0.75
vt 0.1625140625 0.7515625
vt 0.1639328125 0.7576828125
vt 0.1559890625 0.7576828125
vt 0.1559890625 0.7576828125
vt 0.1639328125 0.7576828125
vt 0.1639328125 0.7653640625
vt 0.1559890625 0.7653640625
vt 0.1559890625 0.7653640625
vt 0.1639328125 0.7653640625
vt 0.1639328125 0.9846359375
vt 0.1559890625 0.9846359375
vt 0.1559890625 0.9846359375
vt 0.1639328125 0.9846359375
vt 0.1639328125 0.9923171875
vt 0.1559890625 0.9923171875
vt 0.1559890625 0.9923171875
vt 0.1639328125 0.9923171875
vt 0.1625140625 0.9984375
vt 0.1559890625 1
vt 0.2033859375 0.703125
vt 0.1966765625 0.703125
vt 0.1966765625 0.6875
vt 0.2033859375 0.6875
vt 0.3434890625 0.75
vt 0.3500140625 0.7515625
vt 0.3514328125 0.7576828125
vt 0.3434890625 0.7576828125
vt 0.3434890625 0.7576828125
vt 0.3514328125 0.7576828125
vt 0.3514328125 0.7653640625
vt 0.3434890625 0.7653640625
vt 0.3434890625 0.7653640625
vt 0.3514328125 0.7653640625
vt 0.3514328125 0.9846359375
vt 0.3434890625 0.9846359375
vt 0.3434890625 0.9846359375
vt 0.3514328125 0.9846359375
vt 0.3514328125 0.9923171875
vt 0.3434890625 0.9923171875
vt 0.3434890625 0.9923171875
vt 0.3514328125 0.9923171875
vt 0.3500140625 0.9984375
vt 0.3434890625 1
vt 0.1559890625 0.6875
vt 0.1626984375 0.6875
vt 0.1626984375 0.703125
vt 0.1559890625 0.703125
vt 0.015885937500000002 0.703125
vt 0.009176562500000013 0.703125
vt 0.009176562500000013 0.6875
vt 0.015885937500000002 0.6875
vt 0.2033859375 1
vt 0.1968609375 0.9984375
vt 0.1954421875 0.9923171875
vt 0.2033859375 0.9923171875
vt 0.2033859375 0.9923171875
vt 0.1954421875 0.9923171875
vt 0.1954421875 0.9846359375
vt 0.2033859375 0.9846359375
vt 0.2033859375 0.9846359375
vt 0.1954421875 0.9846359375
vt 0.1954421875 0.7653640625
vt 0.2033859375 0.7653640625
vt 0.2033859375 0.7653640625
vt 0.1954421875 0.7653640625
vt 0.1954421875 0.7576828125
vt 0.2033859375 0.7576828125
vt 0.2033859375 0.7576828125
vt 0.1954421875 0.7576828125
vt 0.1968609375 0.7515625
vt 0.2033859375 0.75
vt 0.3434890625 0.6875
vt 0.3501984375 0.6875
vt 0.3501984375 0.703125
vt 0.3434890625 0.703125
vt 0.015885937500000002 1
vt 0.0093609375 0.9984375
vt 0.007942187500000003 0.9923171875
vt 0.015885937500000002 0.9923171875
vt 0.015885937500000002 0.9923171875
vt 0.007942187500000003 0.9923171875
vt 0.007942187500000003 0.9846359375
vt 0.015885937500000002 0.9846359375
vt 0.015885937500000002 0.9846359375
vt 0.007942187500000003 0.9846359375
vt 0.007942187500000003 0.7653640625
vt 0.015885937500000002 0.7653640625
vt 0.015885937500000002 0.7653640625
vt 0.007942187500000003 0.7653640625
vt 0.007942187500000003 0.7576828125
vt 0.015885937500000002 0.7576828125
vt 0.015885937500000002 0.7576828125
vt 0.007942187500000003 0.7576828125
vt 0.0093609375 0.7515625
vt 0.015885937500000002 0.75
vn 0.9698279879940944 0 -0.24379022479034512
vn -0.9698279879940944 0 -0.24379022479034512
vn 0 1 0
vn 0 -1 0
vn -0.5464020336585781 0 0.8375230251245456
vn -0.5464020336585781 0 -0.8375230251245456
vn -0.826246308554532 0 0.5633090072065324
vn -1 0 0
vn 0 -1 0
vn 0 -1 0
vn 0.826246308554532 0 0.5633090072065324
vn 1 0 0
vn 0 1 0
vn 0 1 0
vn 0 1 0
vn 0 1 0
vn 0 1 0
vn 0 1 0
vn 0 1 0
vn 0 1 0
vn 0.5464020336585781 0 0.8375230251245456
vn 0 0 1
vn 0 -1 0
vn 0 -1 0
vn 0 -1 0
vn 0 -1 0
vn 0 -1 0
vn 0 -1 0
vn 0.5464020336585781 0 -0.8375230251245456
vn 0 0 -1
vn 0.9698279879940941 0 0.24379022479034612
vn 0 -1 0
vn 0 -1 0
vn 0 -1 0
vn -0.9698279879940941 0 0.24379022479034612
vn 0 1 0
vn 0 1 0
vn 0 1 0
vn 0.826246308554532 0 -0.5633090072065324
vn 0 -1 0
vn 0 -1 0
vn 0 -1 0
vn -0.826246308554532 0 -0.5633090072065324
vn 0 1 0
vn 0 1 0
vn 0 1 0
vn 0 1 0
vn 0 1 0
vn 0 1 0
vn 0 1 0
vn 0 1 0
vn 0.23289246916262815 0 -0.9725024924427365
vn 0 -1 0
vn 0 -1 0
vn 0 -1 0
vn 0 -1 0
vn 0 -1 0
vn 0.23289246916262815 0 0.9725024924427365
vn -0.23289246916262815 0 0.9725024924427365
vn 0 -1 0
vn 0 -1 0
vn 0 -1 0
vn 0 -1 0
vn 0 -1 0
vn -0.23289246916262815 0 -0.9725024924427365
vn 0 1 0
vn 0 1 0
vn 0 1 0
vn 0 1 0
vn 0 1 0
usemtl m_85ef9a1e-9b15-f725-0981-a8e70a70aa82
f 14/1/1 42/2/1 41/3/1 16/4/1
f 11/5/2 46/6/2 45/7/2 12/8/2
f 11/9/3 70/10/3 69/11/3 46/12/3
f 45/13/4 66/14/4 65/15/4 12/16/4
f 7/17/5 62/18/5 61/19/5 5/20/5
f 6/21/6 68/22/6 67/23/6 8/24/6
f 5/25/7 38/26/7 37/27/7 7/28/7
f 9/29/8 11/30/8 12/31/8 10/32/8
f 37/33/9 63/34/9 62/35/9 7/36/9
f 12/37/10 65/38/10 64/39/10 10/40/10
f 3/41/11 34/42/11 33/43/11 1/44/11
f 13/45/12 14/46/12 16/47/12 15/48/12
f 5/49/13 61/50/13 72/51/13 38/52/13
f 9/53/14 71/54/14 70/55/14 11/56/14
f 41/57/15 53/58/15 52/59/15 16/60/15
f 18/61/16 48/62/16 47/63/16 20/64/16
f 16/65/17 52/66/17 51/67/17 15/68/17
f 18/69/18 20/70/18 22/71/18 21/72/18
f 33/73/19 50/74/19 49/75/19 1/76/19
f 23/77/20 40/78/20 39/79/20 24/80/20
f 1/81/21 49/82/21 60/83/21 3/84/21
f 23/85/22 24/86/22 26/87/22 25/88/22
f 3/89/23 60/90/23 59/91/23 34/92/23
f 26/93/24 36/94/24 35/95/24 25/96/24
f 13/97/25 58/98/25 57/99/25 14/100/25
f 27/101/26 28/102/26 30/103/26 29/104/26
f 14/105/27 57/106/27 56/107/27 42/108/27
f 30/109/28 44/110/28 43/111/28 29/112/28
f 4/113/29 55/114/29 54/115/29 2/116/29
f 31/117/30 32/118/30 19/119/30 17/120/30
f 15/121/31 33/122/31 34/123/31 13/124/31
f 34/125/32 59/126/32 58/127/32 13/128/32
f 27/129/33 35/130/33 36/131/33 28/132/33
f 10/133/34 64/134/34 63/135/34 37/136/34
f 10/137/35 37/138/35 38/139/35 9/140/35
f 38/141/36 72/142/36 71/143/36 9/144/36
f 22/145/37 39/146/37 40/147/37 21/148/37
f 15/149/38 51/150/38 50/151/38 33/152/38
f 2/153/39 41/154/39 42/155/39 4/156/39
f 42/157/40 56/158/40 55/159/40 4/160/40
f 31/161/41 43/162/41 44/163/41 32/164/41
f 8/165/42 67/166/42 66/167/42 45/168/42
f 8/169/43 45/170/43 46/171/43 6/172/43
f 46/173/44 69/174/44 68/175/44 6/176/44
f 19/177/45 47/178/45 48/179/45 17/180/45
f 2/181/46 54/182/46 53/183/46 41/184/46
f 23/185/47 49/186/47 50/187/47 40/188/47
f 40/189/48 50/190/48 51/191/48 21/192/48
f 21/193/49 51/194/49 52/195/49 18/196/49
f 18/197/50 52/198/50 53/199/50 48/200/50
f 48/201/51 53/202/51 54/203/51 17/204/51
f 17/205/52 54/206/52 55/207/52 31/208/52
f 31/209/53 55/210/53 56/211/53 43/212/53
f 43/213/54 56/214/54 57/215/54 29/216/54
f 29/217/55 57/218/55 58/219/55 27/220/55
f 27/221/56 58/222/56 59/223/56 35/224/56
f 35/225/57 59/226/57 60/227/57 25/228/57
f 25/229/58 60/230/58 49/231/58 23/232/58
f 24/233/59 61/234/59 62/235/59 26/236/59
f 26/237/60 62/238/60 63/239/60 36/240/60
f 36/241/61 63/242/61 64/243/61 28/244/61
f 28/245/62 64/246/62 65/247/62 30/248/62
f 30/249/63 65/250/63 66/251/63 44/252/63
f 44/253/64 66/254/64 67/255/64 32/256/64
f 32/257/65 67/258/65 68/259/65 19/260/65
f 19/261/66 68/262/66 69/263/66 47/264/66
f 47/265/67 69/266/67 70/267/67 20/268/67
f 20/269/68 70/270/68 71/271/68 22/272/68
f 22/273/69 71/274/69 72/275/69 39/276/69
f 39/277/70 72/278/70 61/279/70 24/280/70